<svg width="1553" height="885" xmlns="http://www.w3.org/2000/svg"><g><path d="M-49.93467019870877,-82.08962000906467L-134.42404355853796,240.16454983502626L-51.375352665781975,22.44595041498542Z" fill="#b6204b" stroke="#b6204b"></path><path d="M-49.93467019870877,-82.08962000906467L-51.375352665781975,22.44595041498542L26.003424748778343,-65.94184988178313Z" fill="#970843" stroke="#970843"></path><path d="M-49.93467019870877,-82.08962000906467L26.003424748778343,-65.94184988178313L503.6619261279702,-103.16042854450643Z" fill="#a82245" stroke="#a82245"></path><path d="M-49.93467019870877,-82.08962000906467L503.6619261279702,-103.16042854450643L861.8051724694669,-124.75076727569103Z" fill="#b25a4f" stroke="#b25a4f"></path><path d="M26.003424748778343,-65.94184988178313L-51.375352665781975,22.44595041498542L122.05228745006025,36.001200741156936Z" fill="#b3194a" stroke="#b3194a"></path><path d="M26.003424748778343,-65.94184988178313L122.05228745006025,36.001200741156936L235.60009092092514,-42.392296101897955Z" fill="#bc284c" stroke="#bc284c"></path><path d="M26.003424748778343,-65.94184988178313L235.60009092092514,-42.392296101897955L503.6619261279702,-103.16042854450643Z" fill="#b83343" stroke="#b83343"></path><path d="M235.60009092092514,-42.392296101897955L122.05228745006025,36.001200741156936L174.5409518200904,101.52838580310345Z" fill="#da3e50" stroke="#da3e50"></path><path d="M235.60009092092514,-42.392296101897955L174.5409518200904,101.52838580310345L329.6568821556866,123.8610452413559Z" fill="#ed5150" stroke="#ed5150"></path><path d="M235.60009092092514,-42.392296101897955L329.6568821556866,123.8610452413559L430.1039115060121,-58.17677163518965Z" fill="#dd564f" stroke="#dd564f"></path><path d="M235.60009092092514,-42.392296101897955L430.1039115060121,-58.17677163518965L503.6619261279702,-103.16042854450643Z" fill="#c0504d" stroke="#c0504d"></path><path d="M430.1039115060121,-58.17677163518965L329.6568821556866,123.8610452413559L545.3670474048704,28.278154945001006Z" fill="#ea725c" stroke="#ea725c"></path><path d="M430.1039115060121,-58.17677163518965L545.3670474048704,28.278154945001006L503.6619261279702,-103.16042854450643Z" fill="#cb6b5e" stroke="#cb6b5e"></path><path d="M503.6619261279702,-103.16042854450643L545.3670474048704,28.278154945001006L648.4788073506206,-37.74186657741666Z" fill="#ce7969" stroke="#ce7969"></path><path d="M503.6619261279702,-103.16042854450643L648.4788073506206,-37.74186657741666L861.8051724694669,-124.75076727569103Z" fill="#b97c77" stroke="#b97c77"></path><path d="M648.4788073506206,-37.74186657741666L545.3670474048704,28.278154945001006L727.6206652633846,26.027374109253287Z" fill="#e08c7b" stroke="#e08c7b"></path><path d="M648.4788073506206,-37.74186657741666L727.6206652633846,26.027374109253287L861.8051724694669,-124.75076727569103Z" fill="#c8857d" stroke="#c8857d"></path><path d="M861.8051724694669,-124.75076727569103L727.6206652633846,26.027374109253287L805.6696668639779,132.86565243266523Z" fill="#da917b" stroke="#da917b"></path><path d="M861.8051724694669,-124.75076727569103L805.6696668639779,132.86565243266523L1033.305944558233,24.95620192028582Z" fill="#cb8a77" stroke="#cb8a77"></path><path d="M861.8051724694669,-124.75076727569103L1033.305944558233,24.95620192028582L1011.2453634850681,-67.42309352383018Z" fill="#a17473" stroke="#a17473"></path><path d="M861.8051724694669,-124.75076727569103L1011.2453634850681,-67.42309352383018L1441.3024934660643,-131.196003081277Z" fill="#6b646f" stroke="#6b646f"></path><path d="M1011.2453634850681,-67.42309352383018L1033.305944558233,24.95620192028582L1124.6071507316083,-49.813815811648965Z" fill="#977276" stroke="#977276"></path><path d="M1011.2453634850681,-67.42309352383018L1124.6071507316083,-49.813815811648965L1441.3024934660643,-131.196003081277Z" fill="#645477" stroke="#645477"></path><path d="M1124.6071507316083,-49.813815811648965L1033.305944558233,24.95620192028582L1093.820970878005,100.2694471925497Z" fill="#a77d7c" stroke="#a77d7c"></path><path d="M1124.6071507316083,-49.813815811648965L1093.820970878005,100.2694471925497L1255.335813369602,30.593777736648917Z" fill="#97737f" stroke="#97737f"></path><path d="M1124.6071507316083,-49.813815811648965L1255.335813369602,30.593777736648917L1318.270776718855,-64.87348303198814Z" fill="#735780" stroke="#735780"></path><path d="M1124.6071507316083,-49.813815811648965L1318.270776718855,-64.87348303198814L1441.3024934660643,-131.196003081277Z" fill="#5a3f7b" stroke="#5a3f7b"></path><path d="M1318.270776718855,-64.87348303198814L1255.335813369602,30.593777736648917L1431.919218879193,126.92957405000925Z" fill="#8e5083" stroke="#8e5083"></path><path d="M1318.270776718855,-64.87348303198814L1431.919218879193,126.92957405000925L1526.992867430672,48.29785463400185Z" fill="#9e3f7a" stroke="#9e3f7a"></path><path d="M1318.270776718855,-64.87348303198814L1526.992867430672,48.29785463400185L1441.3024934660643,-131.196003081277Z" fill="#7c2a72" stroke="#7c2a72"></path><path d="M1441.3024934660643,-131.196003081277L1526.992867430672,48.29785463400185L1550.3323074337095,-111.73200784251094Z" fill="#811769" stroke="#811769"></path><path d="M1550.3323074337095,-111.73200784251094L1526.992867430672,48.29785463400185L1676.614750418812,-58.948309225961566Z" fill="#980c64" stroke="#980c64"></path><path d="M1676.614750418812,-58.948309225961566L1526.992867430672,48.29785463400185L1717.7545369975269,47.5668331515044Z" fill="#b61563" stroke="#b61563"></path><path d="M-51.375352665781975,22.44595041498542L-134.42404355853796,240.16454983502626L67.9980568215251,219.2675335239619Z" fill="#c74147" stroke="#c74147"></path><path d="M-51.375352665781975,22.44595041498542L67.9980568215251,219.2675335239619L122.05228745006025,36.001200741156936Z" fill="#d73451" stroke="#d73451"></path><path d="M122.05228745006025,36.001200741156936L67.9980568215251,219.2675335239619L174.5409518200904,101.52838580310345Z" fill="#e64e52" stroke="#e64e52"></path><path d="M174.5409518200904,101.52838580310345L67.9980568215251,219.2675335239619L240.07966546341777,253.8613323122263Z" fill="#ec7255" stroke="#ec7255"></path><path d="M174.5409518200904,101.52838580310345L240.07966546341777,253.8613323122263L329.6568821556866,123.8610452413559Z" fill="#f6724b" stroke="#f6724b"></path><path d="M329.6568821556866,123.8610452413559L240.07966546341777,253.8613323122263L374.52031248249114,243.55510803870857Z" fill="#fb9557" stroke="#fb9557"></path><path d="M329.6568821556866,123.8610452413559L374.52031248249114,243.55510803870857L580.2478507719934,207.69506332464516Z" fill="#fea860" stroke="#fea860"></path><path d="M329.6568821556866,123.8610452413559L580.2478507719934,207.69506332464516L545.3670474048704,28.278154945001006Z" fill="#fe9565" stroke="#fe9565"></path><path d="M545.3670474048704,28.278154945001006L580.2478507719934,207.69506332464516L727.6206652633846,26.027374109253287Z" fill="#fe9e7e" stroke="#fe9e7e"></path><path d="M727.6206652633846,26.027374109253287L580.2478507719934,207.69506332464516L687.4265252519399,248.7445913348347Z" fill="#ffbc80" stroke="#ffbc80"></path><path d="M727.6206652633846,26.027374109253287L687.4265252519399,248.7445913348347L805.6696668639779,132.86565243266523Z" fill="#fcb785" stroke="#fcb785"></path><path d="M805.6696668639779,132.86565243266523L687.4265252519399,248.7445913348347L786.2609938066453,239.2005495261401Z" fill="#fad58a" stroke="#fad58a"></path><path d="M805.6696668639779,132.86565243266523L786.2609938066453,239.2005495261401L1014.4053311739117,280.40537159889936Z" fill="#eed582" stroke="#eed582"></path><path d="M805.6696668639779,132.86565243266523L1014.4053311739117,280.40537159889936L1033.305944558233,24.95620192028582Z" fill="#ddae7a" stroke="#ddae7a"></path><path d="M1033.305944558233,24.95620192028582L1014.4053311739117,280.40537159889936L1093.820970878005,100.2694471925497Z" fill="#c7a17c" stroke="#c7a17c"></path><path d="M1093.820970878005,100.2694471925497L1014.4053311739117,280.40537159889936L1110.9708208031952,215.37511495873332Z" fill="#c1ba83" stroke="#c1ba83"></path><path d="M1093.820970878005,100.2694471925497L1110.9708208031952,215.37511495873332L1255.335813369602,30.593777736648917Z" fill="#ae8d81" stroke="#ae8d81"></path><path d="M1255.335813369602,30.593777736648917L1110.9708208031952,215.37511495873332L1314.5788488630205,212.35381230711937Z" fill="#a18b84" stroke="#a18b84"></path><path d="M1255.335813369602,30.593777736648917L1314.5788488630205,212.35381230711937L1431.919218879193,126.92957405000925Z" fill="#a36b84" stroke="#a36b84"></path><path d="M1431.919218879193,126.92957405000925L1314.5788488630205,212.35381230711937L1472.4027069099247,261.23012599535286Z" fill="#ae7d82" stroke="#ae7d82"></path><path d="M1431.919218879193,126.92957405000925L1472.4027069099247,261.23012599535286L1581.99626670219,264.6851362287998Z" fill="#bc737e" stroke="#bc737e"></path><path d="M1431.919218879193,126.92957405000925L1581.99626670219,264.6851362287998L1526.992867430672,48.29785463400185Z" fill="#bf4f71" stroke="#bf4f71"></path><path d="M1526.992867430672,48.29785463400185L1581.99626670219,264.6851362287998L1717.7545369975269,47.5668331515044Z" fill="#cd336a" stroke="#cd336a"></path><path d="M1717.7545369975269,47.5668331515044L1581.99626670219,264.6851362287998L1737.6030697021633,236.6854768898338Z" fill="#d84c65" stroke="#d84c65"></path><path d="M-134.42404355853796,240.16454983502626L-134.0412044338882,883.8630839064717L-107.85893538035452,730.4713997617364Z" fill="#80787e" stroke="#80787e"></path><path d="M-134.42404355853796,240.16454983502626L-107.85893538035452,730.4713997617364L-70.81841167062521,482.95193860307336Z" fill="#ba8077" stroke="#ba8077"></path><path d="M-134.42404355853796,240.16454983502626L-70.81841167062521,482.95193860307336L-33.7567038461566,422.4019628483802Z" fill="#bf8088" stroke="#bf8088"></path><path d="M-134.42404355853796,240.16454983502626L-33.7567038461566,422.4019628483802L67.9980568215251,219.2675335239619Z" fill="#c8776a" stroke="#c8776a"></path><path d="M67.9980568215251,219.2675335239619L-33.7567038461566,422.4019628483802L92.79746007174253,391.6282600723207Z" fill="#d7897f" stroke="#d7897f"></path><path d="M67.9980568215251,219.2675335239619L92.79746007174253,391.6282600723207L240.07966546341777,253.8613323122263Z" fill="#e99370" stroke="#e99370"></path><path d="M240.07966546341777,253.8613323122263L92.79746007174253,391.6282600723207L246.62020401097834,405.1525372825563Z" fill="#f0a784" stroke="#f0a784"></path><path d="M240.07966546341777,253.8613323122263L246.62020401097834,405.1525372825563L324.84285813756287,421.5224615111947Z" fill="#f8b484" stroke="#f8b484"></path><path d="M240.07966546341777,253.8613323122263L324.84285813756287,421.5224615111947L374.52031248249114,243.55510803870857Z" fill="#fbb973" stroke="#fbb973"></path><path d="M374.52031248249114,243.55510803870857L324.84285813756287,421.5224615111947L537.0576273836195,411.30930745974183Z" fill="#fed491" stroke="#fed491"></path><path d="M374.52031248249114,243.55510803870857L537.0576273836195,411.30930745974183L580.2478507719934,207.69506332464516Z" fill="#ffda84" stroke="#ffda84"></path><path d="M580.2478507719934,207.69506332464516L537.0576273836195,411.30930745974183L687.4265252519399,248.7445913348347Z" fill="#ffea95" stroke="#ffea95"></path><path d="M687.4265252519399,248.7445913348347L537.0576273836195,411.30930745974183L670.872514732182,432.1190967410803Z" fill="#fff7b6" stroke="#fff7b6"></path><path d="M687.4265252519399,248.7445913348347L670.872514732182,432.1190967410803L796.3283549062908,395.3305138461292Z" fill="#feffbf" stroke="#feffbf"></path><path d="M687.4265252519399,248.7445913348347L796.3283549062908,395.3305138461292L786.2609938066453,239.2005495261401Z" fill="#fbf5a3" stroke="#fbf5a3"></path><path d="M786.2609938066453,239.2005495261401L796.3283549062908,395.3305138461292L957.4838925618678,336.46338352002203Z" fill="#f3faa0" stroke="#f3faa0"></path><path d="M786.2609938066453,239.2005495261401L957.4838925618678,336.46338352002203L1014.4053311739117,280.40537159889936Z" fill="#e4e997" stroke="#e4e997"></path><path d="M1014.4053311739117,280.40537159889936L957.4838925618678,336.46338352002203L1088.1709767132998,349.42836723290384Z" fill="#cdeba5" stroke="#cdeba5"></path><path d="M1014.4053311739117,280.40537159889936L1088.1709767132998,349.42836723290384L1110.9708208031952,215.37511495873332Z" fill="#c1da99" stroke="#c1da99"></path><path d="M1110.9708208031952,215.37511495873332L1088.1709767132998,349.42836723290384L1314.5788488630205,212.35381230711937Z" fill="#abc695" stroke="#abc695"></path><path d="M1314.5788488630205,212.35381230711937L1088.1709767132998,349.42836723290384L1274.990575304255,423.8463737536222Z" fill="#a1cdb0" stroke="#a1cdb0"></path><path d="M1314.5788488630205,212.35381230711937L1274.990575304255,423.8463737536222L1430.337295755744,344.4740200974047Z" fill="#a4b6ad" stroke="#a4b6ad"></path><path d="M1314.5788488630205,212.35381230711937L1430.337295755744,344.4740200974047L1472.4027069099247,261.23012599535286Z" fill="#ae9a95" stroke="#ae9a95"></path><path d="M1472.4027069099247,261.23012599535286L1430.337295755744,344.4740200974047L1527.06587607041,343.6631333269179Z" fill="#b9999d" stroke="#b9999d"></path><path d="M1472.4027069099247,261.23012599535286L1527.06587607041,343.6631333269179L1581.99626670219,264.6851362287998Z" fill="#c1868f" stroke="#c1868f"></path><path d="M1581.99626670219,264.6851362287998L1527.06587607041,343.6631333269179L1719.936983725056,355.77888923697174Z" fill="#ce8091" stroke="#ce8091"></path><path d="M1581.99626670219,264.6851362287998L1719.936983725056,355.77888923697174L1737.6030697021633,236.6854768898338Z" fill="#d9757f" stroke="#d9757f"></path><path d="M1737.6030697021633,236.6854768898338L1719.936983725056,355.77888923697174L1725.797043275088,566.1867518909276Z" fill="#e0809f" stroke="#e0809f"></path><path d="M1737.6030697021633,236.6854768898338L1725.797043275088,566.1867518909276L1777.3774655163288,819.8466640803963Z" fill="#d08091" stroke="#d08091"></path><path d="M-33.7567038461566,422.4019628483802L-70.81841167062521,482.95193860307336L103.58137174509466,549.3861321453005Z" fill="#ce807c" stroke="#ce807c"></path><path d="M-33.7567038461566,422.4019628483802L103.58137174509466,549.3861321453005L92.79746007174253,391.6282600723207Z" fill="#d98c87" stroke="#d98c87"></path><path d="M92.79746007174253,391.6282600723207L103.58137174509466,549.3861321453005L174.82577732764184,508.78552093170583Z" fill="#e79b81" stroke="#e79b81"></path><path d="M92.79746007174253,391.6282600723207L174.82577732764184,508.78552093170583L246.62020401097834,405.1525372825563Z" fill="#eea48f" stroke="#eea48f"></path><path d="M246.62020401097834,405.1525372825563L174.82577732764184,508.78552093170583L324.84285813756287,421.5224615111947Z" fill="#f6b189" stroke="#f6b189"></path><path d="M324.84285813756287,421.5224615111947L174.82577732764184,508.78552093170583L346.05620523914695,579.5133754145354Z" fill="#f3b67e" stroke="#f3b67e"></path><path d="M324.84285813756287,421.5224615111947L346.05620523914695,579.5133754145354L517.4478695914149,539.1214712988585Z" fill="#f4d08b" stroke="#f4d08b"></path><path d="M324.84285813756287,421.5224615111947L517.4478695914149,539.1214712988585L537.0576273836195,411.30930745974183Z" fill="#fedd98" stroke="#fedd98"></path><path d="M537.0576273836195,411.30930745974183L517.4478695914149,539.1214712988585L670.872514732182,432.1190967410803Z" fill="#fff1a9" stroke="#fff1a9"></path><path d="M670.872514732182,432.1190967410803L517.4478695914149,539.1214712988585L724.3689176347107,503.5110015794635Z" fill="#fcf8af" stroke="#fcf8af"></path><path d="M670.872514732182,432.1190967410803L724.3689176347107,503.5110015794635L796.3283549062908,395.3305138461292Z" fill="#fdfec2" stroke="#fdfec2"></path><path d="M796.3283549062908,395.3305138461292L724.3689176347107,503.5110015794635L822.2866169828922,509.7038849070668Z" fill="#f9fdb4" stroke="#f9fdb4"></path><path d="M796.3283549062908,395.3305138461292L822.2866169828922,509.7038849070668L955.6373292021453,469.99656309373677Z" fill="#f0f9ae" stroke="#f0f9ae"></path><path d="M796.3283549062908,395.3305138461292L955.6373292021453,469.99656309373677L957.4838925618678,336.46338352002203Z" fill="#e7f5c0" stroke="#e7f5c0"></path><path d="M957.4838925618678,336.46338352002203L955.6373292021453,469.99656309373677L1088.1709767132998,349.42836723290384Z" fill="#d2edbe" stroke="#d2edbe"></path><path d="M1088.1709767132998,349.42836723290384L955.6373292021453,469.99656309373677L1152.1070749685168,491.3906294759363Z" fill="#c2e7bb" stroke="#c2e7bb"></path><path d="M1088.1709767132998,349.42836723290384L1152.1070749685168,491.3906294759363L1274.990575304255,423.8463737536222Z" fill="#abd8c3" stroke="#abd8c3"></path><path d="M1274.990575304255,423.8463737536222L1152.1070749685168,491.3906294759363L1288.4117664489895,545.0664832815528Z" fill="#9dcab7" stroke="#9dcab7"></path><path d="M1274.990575304255,423.8463737536222L1288.4117664489895,545.0664832815528L1367.6806877274066,511.0992641095072Z" fill="#9bbcb6" stroke="#9bbcb6"></path><path d="M1274.990575304255,423.8463737536222L1367.6806877274066,511.0992641095072L1430.337295755744,344.4740200974047Z" fill="#a6b2c1" stroke="#a6b2c1"></path><path d="M1430.337295755744,344.4740200974047L1367.6806877274066,511.0992641095072L1596.0660935472697,488.6047217063606Z" fill="#b79db1" stroke="#b79db1"></path><path d="M1430.337295755744,344.4740200974047L1596.0660935472697,488.6047217063606L1527.06587607041,343.6631333269179Z" fill="#bf92b5" stroke="#bf92b5"></path><path d="M1527.06587607041,343.6631333269179L1596.0660935472697,488.6047217063606L1719.936983725056,355.77888923697174Z" fill="#ce80ad" stroke="#ce80ad"></path><path d="M1719.936983725056,355.77888923697174L1596.0660935472697,488.6047217063606L1725.797043275088,566.1867518909276Z" fill="#d98096" stroke="#d98096"></path><path d="M-70.81841167062521,482.95193860307336L-107.85893538035452,730.4713997617364L45.34068421460688,660.5453308671713Z" fill="#8d7782" stroke="#8d7782"></path><path d="M-70.81841167062521,482.95193860307336L45.34068421460688,660.5453308671713L103.58137174509466,549.3861321453005Z" fill="#ba8684" stroke="#ba8684"></path><path d="M103.58137174509466,549.3861321453005L45.34068421460688,660.5453308671713L195.74338353239,648.538260916248Z" fill="#af9189" stroke="#af9189"></path><path d="M103.58137174509466,549.3861321453005L195.74338353239,648.538260916248L174.82577732764184,508.78552093170583Z" fill="#d0a189" stroke="#d0a189"></path><path d="M174.82577732764184,508.78552093170583L195.74338353239,648.538260916248L346.05620523914695,579.5133754145354Z" fill="#d3ad86" stroke="#d3ad86"></path><path d="M346.05620523914695,579.5133754145354L195.74338353239,648.538260916248L316.0945641808212,679.292940152809Z" fill="#bbac85" stroke="#bbac85"></path><path d="M346.05620523914695,579.5133754145354L316.0945641808212,679.292940152809L472.87877468392253,692.9523422475904Z" fill="#b7bd8f" stroke="#b7bd8f"></path><path d="M346.05620523914695,579.5133754145354L472.87877468392253,692.9523422475904L517.4478695914149,539.1214712988585Z" fill="#d0d597" stroke="#d0d597"></path><path d="M517.4478695914149,539.1214712988585L472.87877468392253,692.9523422475904L627.8831402119249,699.8315092921257Z" fill="#bcdfa4" stroke="#bcdfa4"></path><path d="M517.4478695914149,539.1214712988585L627.8831402119249,699.8315092921257L724.3689176347107,503.5110015794635Z" fill="#dcf4b3" stroke="#dcf4b3"></path><path d="M724.3689176347107,503.5110015794635L627.8831402119249,699.8315092921257L844.2234804946929,709.7898205183446Z" fill="#bdf3bf" stroke="#bdf3bf"></path><path d="M724.3689176347107,503.5110015794635L844.2234804946929,709.7898205183446L822.2866169828922,509.7038849070668Z" fill="#d8fbb5" stroke="#d8fbb5"></path><path d="M822.2866169828922,509.7038849070668L844.2234804946929,709.7898205183446L922.0146275684237,628.8730774819851Z" fill="#baf1af" stroke="#baf1af"></path><path d="M822.2866169828922,509.7038849070668L922.0146275684237,628.8730774819851L955.6373292021453,469.99656309373677Z" fill="#d7f6ae" stroke="#d7f6ae"></path><path d="M955.6373292021453,469.99656309373677L922.0146275684237,628.8730774819851L1152.1070749685168,491.3906294759363Z" fill="#c1ecb1" stroke="#c1ecb1"></path><path d="M1152.1070749685168,491.3906294759363L922.0146275684237,628.8730774819851L1111.296890610829,712.7433343045413Z" fill="#91e0b5" stroke="#91e0b5"></path><path d="M1152.1070749685168,491.3906294759363L1111.296890610829,712.7433343045413L1288.4117664489895,545.0664832815528Z" fill="#85d3b9" stroke="#85d3b9"></path><path d="M1288.4117664489895,545.0664832815528L1111.296890610829,712.7433343045413L1301.9779222179204,691.6706778947264Z" fill="#5abdbf" stroke="#5abdbf"></path><path d="M1288.4117664489895,545.0664832815528L1301.9779222179204,691.6706778947264L1378.733545113355,657.8448832221329Z" fill="#64afbc" stroke="#64afbc"></path><path d="M1288.4117664489895,545.0664832815528L1378.733545113355,657.8448832221329L1367.6806877274066,511.0992641095072Z" fill="#87b4ba" stroke="#87b4ba"></path><path d="M1367.6806877274066,511.0992641095072L1378.733545113355,657.8448832221329L1542.7488173358142,662.5466619059443Z" fill="#809db2" stroke="#809db2"></path><path d="M1367.6806877274066,511.0992641095072L1542.7488173358142,662.5466619059443L1596.0660935472697,488.6047217063606Z" fill="#a695aa" stroke="#a695aa"></path><path d="M1596.0660935472697,488.6047217063606L1542.7488173358142,662.5466619059443L1665.5554374307394,686.293880995363Z" fill="#9979a2" stroke="#9979a2"></path><path d="M1596.0660935472697,488.6047217063606L1665.5554374307394,686.293880995363L1725.797043275088,566.1867518909276Z" fill="#b37d9b" stroke="#b37d9b"></path><path d="M1725.797043275088,566.1867518909276L1665.5554374307394,686.293880995363L1777.3774655163288,819.8466640803963Z" fill="#8a609e" stroke="#8a609e"></path><path d="M-107.85893538035452,730.4713997617364L-134.0412044338882,883.8630839064717L117.31345650739968,865.5310171097517Z" fill="#87267b" stroke="#87267b"></path><path d="M-107.85893538035452,730.4713997617364L117.31345650739968,865.5310171097517L45.34068421460688,660.5453308671713Z" fill="#7a4a8d" stroke="#7a4a8d"></path><path d="M45.34068421460688,660.5453308671713L117.31345650739968,865.5310171097517L225.44419599696994,790.0759126245975Z" fill="#96598e" stroke="#96598e"></path><path d="M45.34068421460688,660.5453308671713L225.44419599696994,790.0759126245975L195.74338353239,648.538260916248Z" fill="#937d94" stroke="#937d94"></path><path d="M195.74338353239,648.538260916248L225.44419599696994,790.0759126245975L316.0945641808212,679.292940152809Z" fill="#9b8a91" stroke="#9b8a91"></path><path d="M316.0945641808212,679.292940152809L225.44419599696994,790.0759126245975L357.51428190618753,859.8562834225595Z" fill="#a9768a" stroke="#a9768a"></path><path d="M316.0945641808212,679.292940152809L357.51428190618753,859.8562834225595L472.87877468392253,692.9523422475904Z" fill="#a19699" stroke="#a19699"></path><path d="M472.87877468392253,692.9523422475904L357.51428190618753,859.8562834225595L499.75544080138206,834.1133383847773Z" fill="#b48e96" stroke="#b48e96"></path><path d="M472.87877468392253,692.9523422475904L499.75544080138206,834.1133383847773L627.8831402119249,699.8315092921257Z" fill="#a3b4ae" stroke="#a3b4ae"></path><path d="M627.8831402119249,699.8315092921257L499.75544080138206,834.1133383847773L649.4480171240866,845.8466018736362Z" fill="#b4a7ad" stroke="#b4a7ad"></path><path d="M627.8831402119249,699.8315092921257L649.4480171240866,845.8466018736362L844.2234804946929,709.7898205183446Z" fill="#a6c5cb" stroke="#a6c5cb"></path><path d="M844.2234804946929,709.7898205183446L649.4480171240866,845.8466018736362L776.0536789521575,915.622500339523Z" fill="#baa5b5" stroke="#baa5b5"></path><path d="M844.2234804946929,709.7898205183446L776.0536789521575,915.622500339523L883.7524228636175,768.5973592847586Z" fill="#aaadb0" stroke="#aaadb0"></path><path d="M844.2234804946929,709.7898205183446L883.7524228636175,768.5973592847586L922.0146275684237,628.8730774819851Z" fill="#92d2ba" stroke="#92d2ba"></path><path d="M922.0146275684237,628.8730774819851L883.7524228636175,768.5973592847586L1021.3180685508996,807.9247197322547Z" fill="#80bfbf" stroke="#80bfbf"></path><path d="M922.0146275684237,628.8730774819851L1021.3180685508996,807.9247197322547L1111.296890610829,712.7433343045413Z" fill="#6fc0c1" stroke="#6fc0c1"></path><path d="M1111.296890610829,712.7433343045413L1021.3180685508996,807.9247197322547L1117.2935079876333,768.6180897988379Z" fill="#69a6bb" stroke="#69a6bb"></path><path d="M1111.296890610829,712.7433343045413L1117.2935079876333,768.6180897988379L1301.9779222179204,691.6706778947264Z" fill="#48a9c7" stroke="#48a9c7"></path><path d="M1301.9779222179204,691.6706778947264L1117.2935079876333,768.6180897988379L1310.8351042494178,775.9423998277634Z" fill="#4392c9" stroke="#4392c9"></path><path d="M1301.9779222179204,691.6706778947264L1310.8351042494178,775.9423998277634L1378.733545113355,657.8448832221329Z" fill="#4690c7" stroke="#4690c7"></path><path d="M1378.733545113355,657.8448832221329L1310.8351042494178,775.9423998277634L1421.8834688421339,847.6097809150815Z" fill="#5272bf" stroke="#5272bf"></path><path d="M1378.733545113355,657.8448832221329L1421.8834688421339,847.6097809150815L1542.7488173358142,662.5466619059443Z" fill="#5372be" stroke="#5372be"></path><path d="M1542.7488173358142,662.5466619059443L1421.8834688421339,847.6097809150815L1547.4326796457171,851.4026556350291Z" fill="#704cac" stroke="#704cac"></path><path d="M1542.7488173358142,662.5466619059443L1547.4326796457171,851.4026556350291L1665.5554374307394,686.293880995363Z" fill="#6b52af" stroke="#6b52af"></path><path d="M1665.5554374307394,686.293880995363L1547.4326796457171,851.4026556350291L1777.3774655163288,819.8466640803963Z" fill="#88379d" stroke="#88379d"></path><path d="M-134.0412044338882,883.8630839064717L-30.36376180127263,976.9782749935985L117.31345650739968,865.5310171097517Z" fill="#a7036d" stroke="#a7036d"></path><path d="M117.31345650739968,865.5310171097517L-30.36376180127263,976.9782749935985L119.74665828980505,946.4983285870403Z" fill="#be106c" stroke="#be106c"></path><path d="M117.31345650739968,865.5310171097517L119.74665828980505,946.4983285870403L233.5552898235619,943.5865661222488Z" fill="#ca2271" stroke="#ca2271"></path><path d="M117.31345650739968,865.5310171097517L233.5552898235619,943.5865661222488L225.44419599696994,790.0759126245975Z" fill="#bd3d7a" stroke="#bd3d7a"></path><path d="M225.44419599696994,790.0759126245975L233.5552898235619,943.5865661222488L357.51428190618753,859.8562834225595Z" fill="#c54b77" stroke="#c54b77"></path><path d="M357.51428190618753,859.8562834225595L233.5552898235619,943.5865661222488L333.8739088922739,1023.4661402832717Z" fill="#e13d6a" stroke="#e13d6a"></path><path d="M357.51428190618753,859.8562834225595L333.8739088922739,1023.4661402832717L519.4295457936823,949.9242532532662Z" fill="#e45373" stroke="#e45373"></path><path d="M357.51428190618753,859.8562834225595L519.4295457936823,949.9242532532662L499.75544080138206,834.1133383847773Z" fill="#d06c87" stroke="#d06c87"></path><path d="M499.75544080138206,834.1133383847773L519.4295457936823,949.9242532532662L631.0572258755565,925.5028915777802Z" fill="#d87391" stroke="#d87391"></path><path d="M499.75544080138206,834.1133383847773L631.0572258755565,925.5028915777802L649.4480171240866,845.8466018736362Z" fill="#cc879f" stroke="#cc879f"></path><path d="M649.4480171240866,845.8466018736362L631.0572258755565,925.5028915777802L776.0536789521575,915.622500339523Z" fill="#d686aa" stroke="#d686aa"></path><path d="M883.7524228636175,768.5973592847586L776.0536789521575,915.622500339523L980.6365143880248,1001.5504343714565Z" fill="#c2809c" stroke="#c2809c"></path><path d="M883.7524228636175,768.5973592847586L980.6365143880248,1001.5504343714565L1021.3180685508996,807.9247197322547Z" fill="#a589a7" stroke="#a589a7"></path><path d="M1021.3180685508996,807.9247197322547L980.6365143880248,1001.5504343714565L1136.8031319323927,1034.9588536284864Z" fill="#af6996" stroke="#af6996"></path><path d="M1021.3180685508996,807.9247197322547L1136.8031319323927,1034.9588536284864L1117.2935079876333,768.6180897988379Z" fill="#8a78a6" stroke="#8a78a6"></path><path d="M1117.2935079876333,768.6180897988379L1136.8031319323927,1034.9588536284864L1305.4663233552128,1016.9976785033941Z" fill="#8d569d" stroke="#8d569d"></path><path d="M1117.2935079876333,768.6180897988379L1305.4663233552128,1016.9976785033941L1310.8351042494178,775.9423998277634Z" fill="#6664b3" stroke="#6664b3"></path><path d="M1310.8351042494178,775.9423998277634L1305.4663233552128,1016.9976785033941L1421.8834688421339,847.6097809150815Z" fill="#7644a9" stroke="#7644a9"></path><path d="M1421.8834688421339,847.6097809150815L1305.4663233552128,1016.9976785033941L1462.689984217286,1007.2011883277446Z" fill="#972b95" stroke="#972b95"></path><path d="M1421.8834688421339,847.6097809150815L1462.689984217286,1007.2011883277446L1529.7909078933299,947.9402664396912Z" fill="#9b1c92" stroke="#9b1c92"></path><path d="M1421.8834688421339,847.6097809150815L1529.7909078933299,947.9402664396912L1547.4326796457171,851.4026556350291Z" fill="#8e249a" stroke="#8e249a"></path><path d="M1547.4326796457171,851.4026556350291L1529.7909078933299,947.9402664396912L1760.5980503652245,937.9252189490944Z" fill="#aa0289" stroke="#aa0289"></path><path d="M1547.4326796457171,851.4026556350291L1760.5980503652245,937.9252189490944L1777.3774655163288,819.8466640803963Z" fill="#a9148a" stroke="#a9148a"></path><path d="M-30.36376180127263,976.9782749935985L333.8739088922739,1023.4661402832717L119.74665828980505,946.4983285870403Z" fill="#dd1f65" stroke="#dd1f65"></path><path d="M119.74665828980505,946.4983285870403L333.8739088922739,1023.4661402832717L233.5552898235619,943.5865661222488Z" fill="#e32e64" stroke="#e32e64"></path><path d="M333.8739088922739,1023.4661402832717L1136.8031319323927,1034.9588536284864L980.6365143880248,1001.5504343714565Z" fill="#f57c86" stroke="#f57c86"></path><path d="M333.8739088922739,1023.4661402832717L980.6365143880248,1001.5504343714565L519.4295457936823,949.9242532532662Z" fill="#f5758a" stroke="#f5758a"></path><path d="M519.4295457936823,949.9242532532662L980.6365143880248,1001.5504343714565L631.0572258755565,925.5028915777802Z" fill="#ea80a1" stroke="#ea80a1"></path><path d="M631.0572258755565,925.5028915777802L980.6365143880248,1001.5504343714565L776.0536789521575,915.622500339523Z" fill="#df7d97" stroke="#df7d97"></path><path d="M1136.8031319323927,1034.9588536284864L1462.689984217286,1007.2011883277446L1305.4663233552128,1016.9976785033941Z" fill="#9d3e91" stroke="#9d3e91"></path><path d="M1462.689984217286,1007.2011883277446L1760.5980503652245,937.9252189490944L1529.7909078933299,947.9402664396912Z" fill="#b70581" stroke="#b70581"></path></g></svg>